<svg width="55" height="55" viewBox="0 0 55 55" fill="none" xmlns="http://www.w3.org/2000/svg">
<path fill-rule="evenodd" clip-rule="evenodd" d="M21.9806 52.1022C21.7595 51.8157 21.7595 49.2674 21.9806 44.456C19.6064 44.5385 18.1077 44.3735 17.4809 43.9622C16.5413 43.3434 15.6018 41.4414 14.7687 40.0996C13.9346 38.7578 12.084 38.5458 11.337 38.2456C10.5899 37.9454 10.402 36.724 13.396 37.6475C16.3901 38.5722 16.5356 41.0907 17.4809 41.6785C18.4251 42.2675 20.6835 42.0108 21.7079 41.5387C22.7311 41.0667 22.6555 39.3113 22.8377 38.6157C23.0691 37.966 22.2556 37.8217 22.2373 37.8171C21.2381 37.8171 15.989 36.6747 14.5464 31.5918C13.105 26.5077 14.9624 23.1848 15.9535 21.7559C16.6135 20.8049 16.5551 18.7745 15.7782 15.6681C18.6004 15.3072 20.7786 16.1952 22.3129 18.3333C22.3152 18.3448 24.3238 17.1382 27.5001 17.1382C30.6763 17.1382 31.8027 18.1214 32.6724 18.3333C33.5421 18.5453 34.2376 14.591 39.6081 15.6681C38.4863 17.8716 37.5479 20.625 38.2641 21.7559C38.9813 22.888 41.7932 26.4859 40.0653 31.5918C38.9137 34.9949 36.6507 37.07 33.2728 37.8171C32.8855 37.9397 32.6919 38.1391 32.6919 38.4141C32.6919 38.8266 33.2155 38.8724 33.9695 40.8054C34.4725 42.0933 34.508 45.7738 34.0783 51.8455C32.9898 52.1228 32.1419 52.3084 31.5346 52.4047C30.4609 52.5731 29.2956 52.6682 28.1498 52.7037C27.0039 52.7404 26.6052 52.737 25.0217 52.5892C23.9981 52.4959 22.9821 52.3332 21.9806 52.1022Z" fill="white"/>
<path d="M55 27.5C55 42.6878 42.6878 55 27.5 55C12.3122 55 0 42.6878 0 27.5C0 12.3122 12.3122 0 27.5 0C42.6878 0 55 12.3122 55 27.5ZM3.70747 27.5C3.70747 40.6403 14.3597 51.2925 27.5 51.2925C40.6403 51.2925 51.2925 40.6403 51.2925 27.5C51.2925 14.3597 40.6403 3.70747 27.5 3.70747C14.3597 3.70747 3.70747 14.3597 3.70747 27.5Z" fill="white"/>
</svg>
