<svg width="55" height="55" viewBox="0 0 55 55" fill="none" xmlns="http://www.w3.org/2000/svg">
<path d="M33.469 35.907L29.874 39.38C29.25 40.005 28.39 40.265 27.442 40.265C26.494 40.265 25.635 40.005 25.01 39.38L19.234 33.568C18.614 32.943 18.297 32.031 18.297 31.083C18.297 30.131 18.614 29.271 19.234 28.651L24.994 22.807C25.614 22.188 26.494 21.948 27.442 21.948C28.39 21.948 29.25 22.208 29.874 22.833L33.469 26.306C34.156 26.994 35.292 26.969 36.005 26.254C36.713 25.541 36.74 24.406 36.052 23.718L32.579 20.207C31.6793 19.3196 30.55 18.7008 29.318 18.42L32.605 15.087C33.293 14.4 33.272 13.264 32.558 12.551C31.844 11.838 30.709 11.816 30.022 12.499L16.553 25.968C15.246 27.28 14.564 29.081 14.564 31.081C14.564 33.077 15.247 34.941 16.553 36.249L22.35 42.061C23.657 43.368 25.465 43.998 27.465 43.998C29.46 43.998 31.266 43.315 32.574 42.009L36.053 38.488C36.741 37.805 36.714 36.671 36.001 35.957C35.288 35.243 34.152 35.217 33.47 35.905L33.469 35.907ZM39.749 29.349H26.218C25.286 29.349 24.526 30.15 24.526 31.14C24.526 32.131 25.286 32.937 26.218 32.937H39.749C40.682 32.937 41.442 32.13 41.442 31.14C41.442 30.151 40.682 29.349 39.749 29.349Z" fill="white"/>
<path d="M55 27.5C55 42.6878 42.6878 55 27.5 55C12.3122 55 0 42.6878 0 27.5C0 12.3122 12.3122 0 27.5 0C42.6878 0 55 12.3122 55 27.5ZM3.70747 27.5C3.70747 40.6403 14.3597 51.2925 27.5 51.2925C40.6403 51.2925 51.2925 40.6403 51.2925 27.5C51.2925 14.3597 40.6403 3.70747 27.5 3.70747C14.3597 3.70747 3.70747 14.3597 3.70747 27.5Z" fill="white"/>
</svg>
