<svg width="55" height="55" viewBox="0 0 55 55" fill="none" xmlns="http://www.w3.org/2000/svg">
<path d="M55 27.5C55 42.6878 42.6878 55 27.5 55C12.3122 55 0 42.6878 0 27.5C0 12.3122 12.3122 0 27.5 0C42.6878 0 55 12.3122 55 27.5ZM3.70747 27.5C3.70747 40.6403 14.3597 51.2925 27.5 51.2925C40.6403 51.2925 51.2925 40.6403 51.2925 27.5C51.2925 14.3597 40.6403 3.70747 27.5 3.70747C14.3597 3.70747 3.70747 14.3597 3.70747 27.5Z" fill="white"/>
<path d="M33.3335 22.6667C35.4552 22.6667 37.4901 23.5095 38.9904 25.0098C40.4906 26.5101 41.3335 28.5449 41.3335 30.6667V40H36.0002V30.6667C36.0002 29.9594 35.7192 29.2811 35.2191 28.781C34.719 28.281 34.0407 28 33.3335 28C32.6263 28 31.948 28.281 31.4479 28.781C30.9478 29.2811 30.6668 29.9594 30.6668 30.6667V40H25.3335V30.6667C25.3335 28.5449 26.1764 26.5101 27.6766 25.0098C29.1769 23.5095 31.2118 22.6667 33.3335 22.6667V22.6667Z" stroke="white" stroke-width="2" stroke-linecap="round" stroke-linejoin="round"/>
<path d="M14.6667 24H20.0001V40H14.6667V24Z" stroke="white" stroke-width="2" stroke-linecap="round" stroke-linejoin="round"/>
<path d="M17.3334 20C18.8062 20 20.0001 18.8061 20.0001 17.3333C20.0001 15.8606 18.8062 14.6667 17.3334 14.6667C15.8607 14.6667 14.6667 15.8606 14.6667 17.3333C14.6667 18.8061 15.8607 20 17.3334 20Z" stroke="white" stroke-width="2" stroke-linecap="round" stroke-linejoin="round"/>
</svg>
