<svg width="55" height="55" viewBox="0 0 55 55" fill="none" xmlns="http://www.w3.org/2000/svg">
<path d="M13.464 36V18.96H18.144V31.92H25.872V36H13.464ZM41.9991 31.632C41.9991 32.656 41.7191 33.488 41.1591 34.128C40.6151 34.768 39.8791 35.24 38.9511 35.544C38.0231 35.848 36.9991 36 35.8791 36H27.5031V18.96H37.3911C38.1911 18.96 38.8791 19.176 39.4551 19.608C40.0471 20.024 40.4951 20.568 40.7991 21.24C41.1191 21.912 41.2791 22.608 41.2791 23.328C41.2791 24.112 41.0711 24.872 40.6551 25.608C40.2551 26.344 39.6471 26.896 38.8311 27.264C39.8071 27.552 40.5751 28.056 41.1351 28.776C41.7111 29.496 41.9991 30.448 41.9991 31.632ZM32.1831 22.944V25.56H35.3751C35.6951 25.56 35.9831 25.472 36.2391 25.296C36.5111 25.12 36.6471 24.768 36.6471 24.24C36.6471 23.776 36.5351 23.448 36.3111 23.256C36.0871 23.048 35.8231 22.944 35.5191 22.944H32.1831ZM37.2471 30.672C37.2471 30.256 37.1351 29.912 36.9111 29.64C36.6871 29.352 36.3991 29.208 36.0471 29.208H32.1831V32.064H35.8791C36.2631 32.064 36.5831 31.944 36.8391 31.704C37.1111 31.464 37.2471 31.12 37.2471 30.672Z" fill="white"/>
<path d="M55 27.5C55 42.6878 42.6878 55 27.5 55C12.3122 55 0 42.6878 0 27.5C0 12.3122 12.3122 0 27.5 0C42.6878 0 55 12.3122 55 27.5ZM3.70747 27.5C3.70747 40.6403 14.3597 51.2925 27.5 51.2925C40.6403 51.2925 51.2925 40.6403 51.2925 27.5C51.2925 14.3597 40.6403 3.70747 27.5 3.70747C14.3597 3.70747 3.70747 14.3597 3.70747 27.5Z" fill="white"/>
</svg>
