<svg width="55" height="55" viewBox="0 0 55 55" fill="none" xmlns="http://www.w3.org/2000/svg">
<path d="M46.4348 16.8169C45.1127 17.4027 43.6925 17.7986 42.1994 17.9775C43.74 17.0557 44.8926 15.6048 45.4421 13.8957C43.9947 14.7554 42.4105 15.3606 40.7586 15.6848C39.6477 14.4987 38.1762 13.7125 36.5727 13.4483C34.9692 13.1841 33.3234 13.4567 31.8907 14.2238C30.458 14.9909 29.3186 16.2095 28.6495 17.6904C27.9803 19.1714 27.8188 20.8318 28.1901 22.414C25.2572 22.2667 22.3881 21.5044 19.769 20.1766C17.1498 18.8487 14.8391 16.985 12.9869 14.7063C12.3536 15.7988 11.9894 17.0655 11.9894 18.4145C11.9887 19.6289 12.2877 20.8247 12.86 21.8958C13.4323 22.9669 14.2601 23.8802 15.2701 24.5547C14.0988 24.5174 12.9534 24.2009 11.9292 23.6316V23.7266C11.9291 25.4298 12.5183 27.0807 13.5968 28.399C14.6753 29.7173 16.1766 30.6219 17.8461 30.9592C16.7596 31.2533 15.6205 31.2966 14.5148 31.0859C14.9858 32.5515 15.9034 33.833 17.139 34.7512C18.3746 35.6694 19.8663 36.1782 21.4055 36.2064C18.7927 38.2575 15.566 39.3701 12.2443 39.3652C11.6559 39.3653 11.068 39.331 10.4836 39.2622C13.8553 41.4301 17.7802 42.5806 21.7886 42.5762C35.3578 42.5762 42.7757 31.3377 42.7757 21.5907C42.7757 21.274 42.7678 20.9542 42.7536 20.6375C44.1964 19.594 45.4419 18.3019 46.4316 16.8217L46.4348 16.8169Z" fill="white"/>
<path d="M55 27.5C55 42.6878 42.6878 55 27.5 55C12.3122 55 0 42.6878 0 27.5C0 12.3122 12.3122 0 27.5 0C42.6878 0 55 12.3122 55 27.5ZM3.70747 27.5C3.70747 40.6403 14.3597 51.2925 27.5 51.2925C40.6403 51.2925 51.2925 40.6403 51.2925 27.5C51.2925 14.3597 40.6403 3.70747 27.5 3.70747C14.3597 3.70747 3.70747 14.3597 3.70747 27.5Z" fill="white"/>
</svg>
