<svg width="585" height="585" viewBox="0 0 585 585" fill="none" xmlns="http://www.w3.org/2000/svg">
<g filter="url(#filter0_i_167:13)">
<path d="M136.49 165.752L219.981 377.853L303.116 165.752H336.867L234.547 418H205.414L102.739 165.752H136.49Z" fill="black"/>
<path d="M357.19 418.157C391.153 418.157 423.724 404.873 447.74 381.227C471.755 357.581 485.247 325.511 485.247 292.071C485.247 258.63 471.755 226.56 447.74 202.914C423.724 179.268 391.153 165.984 357.19 165.984L357.19 194.35C383.512 194.35 408.756 204.646 427.368 222.972C445.981 241.298 456.437 266.154 456.437 292.071C456.437 317.988 445.981 342.843 427.368 361.169C408.756 379.496 383.512 389.791 357.19 389.791V418.157Z" fill="black"/>
<line x1="235.133" y1="403.729" x2="358.133" y2="403.729" stroke="black" stroke-width="28.5108"/>
<path d="M306.133 179.984H358.133" stroke="black" stroke-width="28.5108"/>
<g filter="url(#filter1_i_167:13)">
<circle cx="292.5" cy="292.5" r="292.5" fill="black" fill-opacity="0.01"/>
</g>
</g>
<defs>
<filter id="filter0_i_167:13" x="0" y="0" width="585" height="585" filterUnits="userSpaceOnUse" color-interpolation-filters="sRGB">
<feFlood flood-opacity="0" result="BackgroundImageFix"/>
<feBlend mode="normal" in="SourceGraphic" in2="BackgroundImageFix" result="shape"/>
<feColorMatrix in="SourceAlpha" type="matrix" values="0 0 0 0 0 0 0 0 0 0 0 0 0 0 0 0 0 0 127 0" result="hardAlpha"/>
<feMorphology radius="25" operator="erode" in="SourceAlpha" result="effect1_innerShadow_167:13"/>
<feOffset/>
<feComposite in2="hardAlpha" operator="arithmetic" k2="-1" k3="1"/>
<feColorMatrix type="matrix" values="0 0 0 0 0.352941 0 0 0 0 0.341176 0 0 0 0 1 0 0 0 1 0"/>
<feBlend mode="normal" in2="shape" result="effect1_innerShadow_167:13"/>
</filter>
<filter id="filter1_i_167:13" x="0" y="0" width="585" height="585" filterUnits="userSpaceOnUse" color-interpolation-filters="sRGB">
<feFlood flood-opacity="0" result="BackgroundImageFix"/>
<feBlend mode="normal" in="SourceGraphic" in2="BackgroundImageFix" result="shape"/>
<feColorMatrix in="SourceAlpha" type="matrix" values="0 0 0 0 0 0 0 0 0 0 0 0 0 0 0 0 0 0 127 0" result="hardAlpha"/>
<feMorphology radius="25" operator="erode" in="SourceAlpha" result="effect1_innerShadow_167:13"/>
<feOffset/>
<feComposite in2="hardAlpha" operator="arithmetic" k2="-1" k3="1"/>
<feColorMatrix type="matrix" values="0 0 0 0 0 0 0 0 0 0 0 0 0 0 0 0 0 0 1 0"/>
<feBlend mode="normal" in2="shape" result="effect1_innerShadow_167:13"/>
</filter>
</defs>
</svg>
