<svg width="585" height="585" viewBox="0 0 585 585" fill="none" xmlns="http://www.w3.org/2000/svg">
<path d="M137.49 175.752L220.981 387.853L304.116 175.752H337.867L235.547 428H206.414L103.739 175.752H137.49Z" fill="white"/>
<path d="M358.19 428.157C392.153 428.157 424.724 414.873 448.74 391.227C472.755 367.581 486.247 335.511 486.247 302.071C486.247 268.63 472.755 236.56 448.74 212.914C424.724 189.268 392.153 175.984 358.19 175.984L358.19 204.35C384.512 204.35 409.756 214.646 428.368 232.972C446.981 251.298 457.437 276.154 457.437 302.071C457.437 327.988 446.981 352.843 428.368 371.169C409.756 389.496 384.512 399.791 358.19 399.791V428.157Z" fill="white"/>
<line x1="236.133" y1="413.729" x2="359.133" y2="413.729" stroke="white" stroke-width="28.5108"/>
<path d="M307.133 189.984H359.133" stroke="white" stroke-width="28.5108"/>
<path d="M585 292.5C585 454.043 454.043 585 292.5 585C130.957 585 0 454.043 0 292.5C0 130.957 130.957 0 292.5 0C454.043 0 585 130.957 585 292.5ZM30.8232 292.5C30.8232 437.02 147.98 554.177 292.5 554.177C437.02 554.177 554.177 437.02 554.177 292.5C554.177 147.98 437.02 30.8232 292.5 30.8232C147.98 30.8232 30.8232 147.98 30.8232 292.5Z" fill="white"/>
</svg>
